<svg width="256" height="256" viewBox="0 0 256 256" fill="none" xmlns="http://www.w3.org/2000/svg">
<rect width="256" height="256" fill="white"/>
<path d="M233.257 15.9196C140.861 -20.0067 80.8873 79.1033 163.869 122.965C186.714 135.038 175.951 153.158 159.977 151.341C93.4682 143.775 55.5498 210.825 140.619 248.814C137.511 235.721 148.158 203.319 189.503 203.319C166.265 212.383 154.812 226.735 158.588 248.814H168.549C204.289 248.814 233.262 221.354 233.262 187.48C233.262 148.087 218 131.214 199.755 113.327C173.468 87.5616 177.211 28.0452 233.257 15.9196Z" fill="url(#paint0_linear_1_3)"/>
<path d="M115.484 137.235C42.9874 173.661 88.2571 240.282 124.927 248.814H86.4076C86.4076 248.814 32.998 241.271 37.0679 187.48C41.1379 133.689 97.7139 133.068 115.484 137.235Z" fill="url(#paint1_linear_1_3)"/>
<path d="M125.944 137.235C43.8042 173.661 95.0956 240.282 136.643 248.814H93.0001C93.0001 248.814 32.486 241.271 37.0974 187.48C41.7087 133.689 105.81 133.068 125.944 137.235Z" fill="url(#paint2_linear_1_3)"/>
<g style="mix-blend-mode:multiply" opacity="0.12">
<path d="M129.758 137.236C123.128 136.131 116.346 135.613 109.553 135.694C20.3512 173.064 77.2976 240.162 123.52 248.813H141.748C95.1834 240.281 37.7081 173.661 129.758 137.236Z" fill="url(#paint3_linear_1_3)"/>
</g>
<path d="M121.692 97.6577C114.708 79.8888 96.346 75.1965 89.7291 77.6352C90.0968 74.152 86.8003 66.2756 83.1295 60.7012C81.3472 77.5951 71.4305 92.0483 59.699 106.277C66.3233 118.812 74.2319 130.699 83.3106 141.767C91.8327 138.753 100.868 137.254 109.964 137.346C130.921 137.346 149.666 132.468 154.812 124.803C147.459 125.157 128.677 115.427 121.692 97.6577Z" fill="url(#paint4_linear_1_3)"/>
<g style="mix-blend-mode:multiply" opacity="0.45">
<path d="M109.063 127.527C99.1306 126.1 90.1261 129.135 82.4092 131.942C82.4092 131.942 81.3809 139.344 83.3107 141.765C91.8327 138.75 100.868 137.252 109.964 137.344C130.921 137.344 149.666 132.465 154.812 124.801C141.503 129.091 131.523 130.755 109.063 127.527Z" fill="url(#paint5_linear_1_3)"/>
</g>
<path d="M84.8911 141.201C84.9036 141.193 84.9171 141.186 84.9313 141.18C124.129 129.547 126.369 108.772 121.692 97.6536C114.708 79.8847 96.346 75.1924 89.7291 77.6311C90.0968 74.1478 86.8003 66.2714 83.1295 60.697C78.7178 102.506 21.6949 128.515 21.6949 187.476C21.6949 221.35 50.6678 248.81 86.4076 248.81H124.927C33.203 248.814 26.3593 160.824 84.8911 141.201Z" fill="url(#paint6_linear_1_3)"/>
<g style="mix-blend-mode:screen" opacity="0.45">
<path d="M70.6744 137.295C70.6873 137.286 70.7007 137.279 70.7146 137.272C126.596 118.575 98.931 77.6331 89.7291 77.6331C90.0968 74.1499 86.8003 66.2735 83.1295 60.6991C78.7178 102.508 21.6949 128.518 21.6949 187.478C21.6949 221.352 50.6678 248.812 86.4076 248.812H110.706C18.9874 248.814 14.1125 156.829 70.6744 137.295Z" fill="url(#paint7_linear_1_3)"/>
</g>
<path d="M233.257 15.9196C140.861 -20.0067 80.8873 79.1033 163.869 122.965C164.629 123.366 165.346 123.775 166.031 124.188C186.082 135.126 234.09 151.57 230.763 204.33C232.417 198.851 233.257 193.179 233.258 187.48C233.258 148.087 217.999 131.211 199.752 113.327C173.27 87.3734 177.211 28.0452 233.257 15.9196Z" fill="url(#paint8_linear_1_3)"/>
<g style="mix-blend-mode:screen" opacity="0.45">
<path d="M233.257 15.9197C223.468 12.0283 213.117 9.55238 202.551 8.57483C185.432 8.70334 143.467 22.1171 145.845 64.4651C148.822 117.502 218.593 118.931 230.228 160.6C224.845 139.232 213.34 126.339 199.746 113.331C173.598 88.2947 177.211 28.0452 233.257 15.9197Z" fill="url(#paint9_linear_1_3)"/>
</g>
<path d="M199.751 113.327C173.27 87.3733 178.561 27.9012 233.854 16.0676C167.364 -2.06627 131.116 77.2835 204.396 117.954L204.424 117.968C202.893 116.424 201.334 114.882 199.751 113.327Z" fill="url(#paint10_linear_1_3)"/>
<defs>
<linearGradient id="paint0_linear_1_3" x1="225.112" y1="-118.158" x2="-56.1546" y2="-80.5353" gradientUnits="userSpaceOnUse">
<stop stop-color="#DC1D38"/>
<stop offset="1" stop-color="#FFBB00"/>
</linearGradient>
<linearGradient id="paint1_linear_1_3" x1="94.8332" y1="110.391" x2="5.04478" y2="174.099" gradientUnits="userSpaceOnUse">
<stop stop-color="white"/>
<stop offset="1" stop-color="#EFC8C0"/>
</linearGradient>
<linearGradient id="paint2_linear_1_3" x1="102.547" y1="110.391" x2="9.64139" y2="185.079" gradientUnits="userSpaceOnUse">
<stop stop-color="white"/>
<stop offset="1" stop-color="#EFC8C0"/>
</linearGradient>
<linearGradient id="paint3_linear_1_3" x1="282.06" y1="-4.61567" x2="103.472" y2="35.803" gradientUnits="userSpaceOnUse">
<stop stop-color="white"/>
<stop offset="1" stop-color="#EFC8C0"/>
</linearGradient>
<linearGradient id="paint4_linear_1_3" x1="156.744" y1="108.877" x2="128.987" y2="95.0892" gradientUnits="userSpaceOnUse">
<stop stop-color="#FDB502"/>
<stop offset="1" stop-color="#F38926"/>
</linearGradient>
<linearGradient id="paint5_linear_1_3" x1="433.716" y1="270.712" x2="431.929" y2="139.951" gradientUnits="userSpaceOnUse">
<stop stop-color="white"/>
<stop offset="1" stop-color="#EFC8C0"/>
</linearGradient>
<linearGradient id="paint6_linear_1_3" x1="21.6949" y1="248.81" x2="124.927" y2="248.81" gradientUnits="userSpaceOnUse">
<stop stop-color="#DC1D38"/>
<stop offset="1" stop-color="#FFBB00"/>
</linearGradient>
<linearGradient id="paint7_linear_1_3" x1="98.4894" y1="268.389" x2="186.424" y2="165.048" gradientUnits="userSpaceOnUse">
<stop stop-color="#DC1D38"/>
<stop offset="1" stop-color="#FFBB00"/>
</linearGradient>
<linearGradient id="paint8_linear_1_3" x1="118.08" y1="-41.1938" x2="118.08" y2="177.856" gradientUnits="userSpaceOnUse">
<stop stop-color="#DC1D38"/>
<stop offset="1" stop-color="#FFBB00"/>
</linearGradient>
<linearGradient id="paint9_linear_1_3" x1="185.516" y1="-44.855" x2="93.3348" y2="41.8629" gradientUnits="userSpaceOnUse">
<stop stop-color="#DC1D38"/>
<stop offset="1" stop-color="#FFBB00"/>
</linearGradient>
<linearGradient id="paint10_linear_1_3" x1="164.688" y1="66.3768" x2="234.742" y2="126.552" gradientUnits="userSpaceOnUse">
<stop stop-color="white"/>
<stop offset="1" stop-color="#EFC8C0"/>
</linearGradient>
</defs>
</svg>
