<svg width="1686" height="328" viewBox="0 0 1686 328" fill="none" xmlns="http://www.w3.org/2000/svg">
<g clip-path="url(#clip0_16_2)">
<path d="M105.25 267.729C91.4166 267.729 78.6666 265.562 66.9999 261.229C55.4999 256.729 45.4166 250.395 36.7499 242.229C28.2499 234.062 21.5833 224.479 16.7499 213.479C12.0833 202.479 9.74994 190.395 9.74994 177.229C9.74994 164.062 12.0833 151.979 16.7499 140.979C21.5833 129.979 28.3333 120.395 36.9999 112.229C45.6666 104.062 55.8333 97.8121 67.4999 93.4787C79.1666 88.9788 91.9999 86.7288 106 86.7288C121.5 86.7288 135.417 89.3121 147.75 94.4787C160.25 99.6454 170.75 107.145 179.25 116.979L153.25 140.979C146.917 134.312 140 129.395 132.5 126.229C125 122.895 116.833 121.229 108 121.229C99.4999 121.229 91.7499 122.562 84.7499 125.229C77.7499 127.895 71.6666 131.729 66.4999 136.729C61.4999 141.729 57.5833 147.645 54.7499 154.479C52.0833 161.312 50.7499 168.895 50.7499 177.229C50.7499 185.395 52.0833 192.895 54.7499 199.729C57.5833 206.562 61.4999 212.562 66.4999 217.729C71.6666 222.729 77.6666 226.562 84.4999 229.229C91.4999 231.895 99.1666 233.229 107.5 233.229C115.5 233.229 123.25 231.979 130.75 229.479C138.417 226.812 145.833 222.395 153 216.229L176 245.479C166.5 252.645 155.417 258.145 142.75 261.979C130.25 265.812 117.75 267.729 105.25 267.729ZM139 240.229V174.479H176V245.479L139 240.229ZM329.416 266.729C314.083 266.729 300.583 263.729 288.916 257.729C277.416 251.729 268.499 243.562 262.166 233.229C255.833 222.729 252.666 210.812 252.666 197.479C252.666 183.979 255.749 172.062 261.916 161.729C268.249 151.229 276.833 143.062 287.666 137.229C298.499 131.229 310.749 128.229 324.416 128.229C337.583 128.229 349.416 131.062 359.916 136.729C370.583 142.229 378.999 150.229 385.166 160.729C391.333 171.062 394.416 183.479 394.416 197.979C394.416 199.479 394.333 201.229 394.166 203.229C393.999 205.062 393.833 206.812 393.666 208.479H284.416V185.729H373.166L358.166 192.479C358.166 185.479 356.749 179.395 353.916 174.229C351.083 169.062 347.166 165.062 342.166 162.229C337.166 159.229 331.333 157.729 324.666 157.729C317.999 157.729 312.083 159.229 306.916 162.229C301.916 165.062 297.999 169.145 295.166 174.479C292.333 179.645 290.916 185.812 290.916 192.979V198.979C290.916 206.312 292.499 212.812 295.666 218.479C298.999 223.979 303.583 228.229 309.416 231.229C315.416 234.062 322.416 235.479 330.416 235.479C337.583 235.479 343.833 234.395 349.166 232.229C354.666 230.062 359.666 226.812 364.166 222.479L384.916 244.979C378.749 251.979 370.999 257.395 361.666 261.229C352.333 264.895 341.583 266.729 329.416 266.729ZM527.176 266.729C511.342 266.729 499.009 262.729 490.176 254.729C481.342 246.562 476.926 234.479 476.926 218.479V100.479H515.926V217.979C515.926 223.645 517.426 228.062 520.426 231.229C523.426 234.229 527.509 235.729 532.676 235.729C538.842 235.729 544.092 234.062 548.426 230.729L558.926 258.229C554.926 261.062 550.092 263.229 544.426 264.729C538.926 266.062 533.176 266.729 527.176 266.729ZM456.176 163.229V133.229H549.426V163.229H456.176ZM635.363 264.729V89.7287H675.863V231.729H763.613V264.729H635.363ZM898.554 266.729C884.221 266.729 871.471 263.729 860.304 257.729C849.304 251.729 840.554 243.562 834.054 233.229C827.721 222.729 824.554 210.812 824.554 197.479C824.554 183.979 827.721 172.062 834.054 161.729C840.554 151.229 849.304 143.062 860.304 137.229C871.471 131.229 884.221 128.229 898.554 128.229C912.721 128.229 925.388 131.229 936.554 137.229C947.721 143.062 956.471 151.145 962.804 161.479C969.138 171.812 972.304 183.812 972.304 197.479C972.304 210.812 969.138 222.729 962.804 233.229C956.471 243.562 947.721 251.729 936.554 257.729C925.388 263.729 912.721 266.729 898.554 266.729ZM898.554 234.729C905.054 234.729 910.888 233.229 916.054 230.229C921.221 227.229 925.304 222.979 928.304 217.479C931.304 211.812 932.804 205.145 932.804 197.479C932.804 189.645 931.304 182.979 928.304 177.479C925.304 171.979 921.221 167.729 916.054 164.729C910.888 161.729 905.054 160.229 898.554 160.229C892.054 160.229 886.221 161.729 881.054 164.729C875.888 167.729 871.721 171.979 868.554 177.479C865.554 182.979 864.054 189.645 864.054 197.479C864.054 205.145 865.554 211.812 868.554 217.479C871.721 222.979 875.888 227.229 881.054 230.229C886.221 233.229 892.054 234.729 898.554 234.729ZM1113.42 315.229C1100.75 315.229 1088.5 313.645 1076.67 310.479C1065 307.479 1055.25 302.895 1047.42 296.729L1062.92 268.729C1068.58 273.395 1075.75 277.062 1084.42 279.729C1093.25 282.562 1101.92 283.979 1110.42 283.979C1124.25 283.979 1134.25 280.895 1140.42 274.729C1146.75 268.562 1149.92 259.395 1149.92 247.229V226.979L1152.42 193.229L1151.92 159.229V130.229H1188.92V242.229C1188.92 267.229 1182.42 285.645 1169.42 297.479C1156.42 309.312 1137.75 315.229 1113.42 315.229ZM1107.42 258.229C1094.92 258.229 1083.58 255.562 1073.42 250.229C1063.42 244.729 1055.33 237.145 1049.17 227.479C1043.17 217.645 1040.17 206.229 1040.17 193.229C1040.17 180.062 1043.17 168.645 1049.17 158.979C1055.33 149.145 1063.42 141.562 1073.42 136.229C1083.58 130.895 1094.92 128.229 1107.42 128.229C1118.75 128.229 1128.75 130.562 1137.42 135.229C1146.08 139.729 1152.83 146.812 1157.67 156.479C1162.5 165.979 1164.92 178.229 1164.92 193.229C1164.92 208.062 1162.5 220.312 1157.67 229.979C1152.83 239.479 1146.08 246.562 1137.42 251.229C1128.75 255.895 1118.75 258.229 1107.42 258.229ZM1115.17 226.229C1122 226.229 1128.08 224.895 1133.42 222.229C1138.75 219.395 1142.92 215.479 1145.92 210.479C1148.92 205.479 1150.42 199.729 1150.42 193.229C1150.42 186.562 1148.92 180.812 1145.92 175.979C1142.92 170.979 1138.75 167.145 1133.42 164.479C1128.08 161.645 1122 160.229 1115.17 160.229C1108.33 160.229 1102.25 161.645 1096.92 164.479C1091.58 167.145 1087.33 170.979 1084.17 175.979C1081.17 180.812 1079.67 186.562 1079.67 193.229C1079.67 199.729 1081.17 205.479 1084.17 210.479C1087.33 215.479 1091.58 219.395 1096.92 222.229C1102.25 224.895 1108.33 226.229 1115.17 226.229ZM1277.01 264.729V130.229H1316.01V264.729H1277.01ZM1296.51 111.479C1289.34 111.479 1283.51 109.395 1279.01 105.229C1274.51 101.062 1272.26 95.8954 1272.26 89.7287C1272.26 83.5621 1274.51 78.3954 1279.01 74.2288C1283.51 70.0621 1289.34 67.9787 1296.51 67.9787C1303.68 67.9787 1309.51 69.9787 1314.01 73.9788C1318.51 77.8121 1320.76 82.8121 1320.76 88.9788C1320.76 95.4788 1318.51 100.895 1314.01 105.229C1309.68 109.395 1303.84 111.479 1296.51 111.479ZM1387 264.729L1447.25 185.729L1446.5 207.229L1388.75 130.229H1432.5L1469 180.479L1452.5 180.979L1490.25 130.229H1531.75L1473.75 206.479V185.479L1533.75 264.729H1489.5L1451.25 211.229L1467.5 213.479L1429.5 264.729H1387Z" fill="url(#paint0_linear_16_2)"/>
<path d="M1683.75 10.1436C1588.17 -29.1288 1526.14 79.212 1611.97 127.158C1635.6 140.356 1624.47 160.164 1607.95 158.177C1539.15 149.907 1499.93 223.202 1587.92 264.729C1584.71 250.416 1595.72 214.996 1638.49 214.996C1614.45 224.904 1602.6 240.594 1606.51 264.729H1616.81C1653.78 264.729 1683.75 234.711 1683.75 197.682C1683.75 154.62 1667.97 136.176 1649.09 116.623C1621.9 88.458 1625.77 23.3985 1683.75 10.1436Z" fill="url(#paint1_linear_16_2)"/>
<path d="M1561.93 142.757C1486.94 182.576 1533.77 255.401 1571.7 264.728H1531.85C1531.85 264.728 1476.61 256.482 1480.82 197.682C1485.03 138.881 1543.55 138.202 1561.93 142.757Z" fill="url(#paint2_linear_16_2)"/>
<path d="M1572.75 142.757C1487.78 182.576 1540.84 255.401 1583.82 264.728H1538.67C1538.67 264.728 1476.08 256.482 1480.85 197.682C1485.62 138.881 1551.92 138.202 1572.75 142.757Z" fill="url(#paint3_linear_16_2)"/>
<g style="mix-blend-mode:multiply" opacity="0.12">
<path d="M1576.69 142.758C1569.83 141.551 1562.82 140.985 1555.79 141.073C1463.52 181.924 1522.42 255.271 1570.24 264.727H1589.09C1540.92 255.401 1481.47 182.576 1576.69 142.758Z" fill="url(#paint4_linear_16_2)"/>
</g>
<path d="M1568.35 99.4928C1561.12 80.069 1542.13 74.9396 1535.28 77.6055C1535.66 73.7978 1532.25 65.1878 1528.46 59.0942C1526.61 77.5616 1516.36 93.3609 1504.22 108.915C1511.07 122.617 1519.25 135.611 1528.64 147.71C1537.46 144.415 1546.81 142.777 1556.22 142.877C1577.89 142.877 1597.28 137.545 1602.61 129.166C1595 129.553 1575.57 118.917 1568.35 99.4928Z" fill="url(#paint5_linear_16_2)"/>
<g style="mix-blend-mode:multiply" opacity="0.45">
<path d="M1555.28 132.145C1545.01 130.585 1535.69 133.903 1527.71 136.971C1527.71 136.971 1526.65 145.063 1528.64 147.708C1537.46 144.413 1546.81 142.775 1556.21 142.876C1577.89 142.876 1597.28 137.543 1602.6 129.165C1588.84 133.854 1578.52 135.673 1555.28 132.145Z" fill="url(#paint6_linear_16_2)"/>
</g>
<path d="M1530.28 147.091C1530.29 147.082 1530.31 147.074 1530.32 147.067C1570.87 134.351 1573.18 111.641 1568.35 99.4874C1561.12 80.0636 1542.13 74.9343 1535.28 77.6001C1535.66 73.7924 1532.25 65.1825 1528.46 59.0889C1523.89 104.792 1464.91 133.224 1464.91 197.675C1464.91 234.704 1494.88 264.722 1531.85 264.722H1571.69C1476.81 264.726 1469.73 168.541 1530.28 147.091Z" fill="url(#paint7_linear_16_2)"/>
<g style="mix-blend-mode:screen" opacity="0.45">
<path d="M1515.57 142.821C1515.59 142.812 1515.6 142.804 1515.61 142.796C1573.42 122.358 1544.8 77.603 1535.28 77.603C1535.66 73.7954 1532.25 65.1854 1528.46 59.0918C1523.89 104.795 1464.91 133.227 1464.91 197.678C1464.91 234.707 1494.88 264.725 1531.85 264.725H1556.98C1462.11 264.727 1457.07 164.174 1515.57 142.821Z" fill="url(#paint8_linear_16_2)"/>
</g>
<path d="M1684.95 9.0186C1589.37 -30.2538 1527.34 78.087 1613.17 126.033C1613.96 126.472 1614.7 126.919 1615.41 127.371C1636.15 139.328 1685.81 157.303 1682.37 214.977C1684.08 208.987 1684.95 202.787 1684.95 196.557C1684.95 153.495 1669.17 135.048 1650.29 115.498C1622.9 87.1274 1626.97 22.2735 1684.95 9.0186Z" fill="url(#paint9_linear_16_2)"/>
<g style="mix-blend-mode:screen" opacity="0.45">
<path d="M1683.92 11.0763C1673.79 6.82244 1663.08 4.11596 1652.16 3.04736V3.04736C1634.45 3.18785 1591.04 17.8509 1593.5 64.143C1596.58 122.12 1668.75 123.682 1680.78 169.231C1675.22 145.874 1663.32 131.78 1649.25 117.56C1622.21 90.192 1625.94 24.3312 1683.92 11.0763Z" fill="url(#paint10_linear_16_2)"/>
</g>
<path d="M1650.21 115.497C1622.82 87.1262 1628.29 22.115 1685.49 9.17931C1616.71 -10.6435 1579.22 76.0966 1655.02 120.555L1655.05 120.57C1653.46 118.882 1651.85 117.196 1650.21 115.497Z" fill="url(#paint11_linear_16_2)"/>
</g>
<defs>
<linearGradient id="paint0_linear_16_2" x1="-294.809" y1="88.8648" x2="1535" y2="239.063" gradientUnits="userSpaceOnUse">
<stop stop-color="#EA4D2F"/>
<stop offset="0.244854" stop-color="#F7A11B"/>
<stop offset="0.461463" stop-color="#ED6A1D"/>
<stop offset="0.690371" stop-color="#EF741A"/>
<stop offset="0.857886" stop-color="#E95724"/>
<stop offset="1" stop-color="#EA4735"/>
<stop offset="1" stop-color="#EA4735"/>
</linearGradient>
<linearGradient id="paint1_linear_16_2" x1="1675.32" y1="-136.421" x2="1383.84" y2="-99.5274" gradientUnits="userSpaceOnUse">
<stop stop-color="#DC1D38"/>
<stop offset="1" stop-color="#FFBB00"/>
</linearGradient>
<linearGradient id="paint2_linear_16_2" x1="1540.57" y1="113.413" x2="1444.32" y2="178.035" gradientUnits="userSpaceOnUse">
<stop stop-color="white"/>
<stop offset="1" stop-color="#EFC8C0"/>
</linearGradient>
<linearGradient id="paint3_linear_16_2" x1="1548.55" y1="113.413" x2="1448.33" y2="189.65" gradientUnits="userSpaceOnUse">
<stop stop-color="white"/>
<stop offset="1" stop-color="#EFC8C0"/>
</linearGradient>
<linearGradient id="paint4_linear_16_2" x1="1734.23" y1="-12.3047" x2="1548.55" y2="27.461" gradientUnits="userSpaceOnUse">
<stop stop-color="white"/>
<stop offset="1" stop-color="#EFC8C0"/>
</linearGradient>
<linearGradient id="paint5_linear_16_2" x1="1604.6" y1="111.757" x2="1575.29" y2="97.9759" gradientUnits="userSpaceOnUse">
<stop stop-color="#FDB502"/>
<stop offset="1" stop-color="#F38926"/>
</linearGradient>
<linearGradient id="paint6_linear_16_2" x1="1891.11" y1="288.665" x2="1889.04" y2="145.729" gradientUnits="userSpaceOnUse">
<stop stop-color="white"/>
<stop offset="1" stop-color="#EFC8C0"/>
</linearGradient>
<linearGradient id="paint7_linear_16_2" x1="1464.91" y1="264.722" x2="1571.69" y2="264.722" gradientUnits="userSpaceOnUse">
<stop stop-color="#DC1D38"/>
<stop offset="1" stop-color="#FFBB00"/>
</linearGradient>
<linearGradient id="paint8_linear_16_2" x1="1544.35" y1="286.125" x2="1641.18" y2="178.44" gradientUnits="userSpaceOnUse">
<stop stop-color="#DC1D38"/>
<stop offset="1" stop-color="#FFBB00"/>
</linearGradient>
<linearGradient id="paint9_linear_16_2" x1="1565.81" y1="-53.4141" x2="1565.81" y2="186.037" gradientUnits="userSpaceOnUse">
<stop stop-color="#DC1D38"/>
<stop offset="1" stop-color="#FFBB00"/>
</linearGradient>
<linearGradient id="paint10_linear_16_2" x1="1634.53" y1="-55.3587" x2="1534.26" y2="33.9058" gradientUnits="userSpaceOnUse">
<stop stop-color="#DC1D38"/>
<stop offset="1" stop-color="#FFBB00"/>
</linearGradient>
<linearGradient id="paint11_linear_16_2" x1="1613.94" y1="64.1742" x2="1689.77" y2="125.812" gradientUnits="userSpaceOnUse">
<stop stop-color="white"/>
<stop offset="1" stop-color="#EFC8C0"/>
</linearGradient>
<clipPath id="clip0_16_2">
<rect width="1686" height="327.729" fill="white"/>
</clipPath>
</defs>
</svg>
