<svg width="213" height="241" viewBox="0 0 213 241" fill="none" xmlns="http://www.w3.org/2000/svg">
<path d="M212.257 7.91962C119.861 -28.0067 59.8873 71.1033 142.869 114.965C165.714 127.038 154.951 145.158 138.977 143.341C72.4682 135.775 34.5498 202.825 119.619 240.814C116.511 227.721 127.158 195.319 168.503 195.319C145.265 204.383 133.812 218.735 137.588 240.814H147.549C183.289 240.814 212.262 213.354 212.262 179.48C212.262 140.087 197 123.214 178.755 105.327C152.468 79.5616 156.211 20.0452 212.257 7.91962Z" fill="url(#paint0_linear_1_4)"/>
<path d="M94.4842 129.235C21.9874 165.661 67.2571 232.282 103.927 240.814H65.4076C65.4076 240.814 11.998 233.271 16.0679 179.48C20.1379 125.689 76.7139 125.068 94.4842 129.235Z" fill="url(#paint1_linear_1_4)"/>
<path d="M104.944 129.235C22.8042 165.661 74.0956 232.282 115.643 240.814H72.0001C72.0001 240.814 11.486 233.271 16.0974 179.48C20.7087 125.689 84.8104 125.068 104.944 129.235Z" fill="url(#paint2_linear_1_4)"/>
<g style="mix-blend-mode:multiply" opacity="0.12">
<path d="M108.758 129.236C102.128 128.131 95.3458 127.613 88.5529 127.694C-0.648762 165.064 56.2976 232.162 102.52 240.813H120.748C74.1834 232.281 16.7081 165.661 108.758 129.236Z" fill="url(#paint3_linear_1_4)"/>
</g>
<path d="M100.692 89.6577C93.7075 71.8888 75.346 67.1965 68.7291 69.6352C69.0968 66.152 65.8003 58.2756 62.1295 52.7012C60.3472 69.5951 50.4305 84.0483 38.699 98.2774C45.3233 110.812 53.2319 122.699 62.3106 133.767C70.8327 130.753 79.8683 129.254 88.9639 129.346C109.921 129.346 128.666 124.468 133.812 116.803C126.459 117.157 107.677 107.427 100.692 89.6577Z" fill="url(#paint4_linear_1_4)"/>
<g style="mix-blend-mode:multiply" opacity="0.45">
<path d="M88.0625 119.527C78.1306 118.1 69.1261 121.135 61.4092 123.942C61.4092 123.942 60.3809 131.344 62.3107 133.765C70.8327 130.75 79.8683 129.252 88.9639 129.344C109.921 129.344 128.666 124.465 133.812 116.801C120.503 121.091 110.523 122.755 88.0625 119.527Z" fill="url(#paint5_linear_1_4)"/>
</g>
<path d="M63.8911 133.201C63.9036 133.193 63.9171 133.186 63.9313 133.18C103.129 121.547 105.369 100.772 100.692 89.6536C93.7075 71.8847 75.346 67.1924 68.7291 69.6311C69.0968 66.1478 65.8003 58.2714 62.1295 52.697C57.7178 94.5062 0.694916 120.515 0.694916 179.476C0.694916 213.35 29.6678 240.81 65.4076 240.81H103.927C12.203 240.814 5.35932 152.824 63.8911 133.201Z" fill="url(#paint6_linear_1_4)"/>
<g style="mix-blend-mode:screen" opacity="0.45">
<path d="M49.6744 129.295C49.6873 129.286 49.7007 129.279 49.7146 129.272C105.596 110.575 77.931 69.6331 68.7291 69.6331C69.0968 66.1499 65.8003 58.2735 62.1295 52.6991C57.7178 94.5083 0.694916 120.518 0.694916 179.478C0.694916 213.352 29.6678 240.812 65.4076 240.812H89.7059C-2.01261 240.814 -6.88746 148.829 49.6744 129.295Z" fill="url(#paint7_linear_1_4)"/>
</g>
<path d="M212.257 7.91962C119.861 -28.0067 59.8873 71.1033 142.869 114.965C143.629 115.366 144.346 115.775 145.031 116.188C165.082 127.126 213.09 143.57 209.763 196.33C211.417 190.851 212.257 185.179 212.258 179.48C212.258 140.087 196.999 123.211 178.752 105.327C152.27 79.3734 156.211 20.0452 212.257 7.91962Z" fill="url(#paint8_linear_1_4)"/>
<g style="mix-blend-mode:screen" opacity="0.45">
<path d="M212.257 7.91966C202.468 4.02827 192.117 1.55238 181.551 0.574829C164.432 0.703343 122.467 14.1171 124.845 56.4651C127.822 109.502 197.593 110.931 209.228 152.6C203.845 131.232 192.34 118.339 178.746 105.331C152.598 80.2947 156.211 20.0452 212.257 7.91966Z" fill="url(#paint9_linear_1_4)"/>
</g>
<path d="M178.751 105.327C152.27 79.3733 157.561 19.9012 212.854 8.06758C146.364 -10.0663 110.116 69.2835 183.396 109.954L183.424 109.968C181.893 108.424 180.334 106.882 178.751 105.327Z" fill="url(#paint10_linear_1_4)"/>
<defs>
<linearGradient id="paint0_linear_1_4" x1="204.112" y1="-126.158" x2="-77.1546" y2="-88.5353" gradientUnits="userSpaceOnUse">
<stop stop-color="#DC1D38"/>
<stop offset="1" stop-color="#FFBB00"/>
</linearGradient>
<linearGradient id="paint1_linear_1_4" x1="73.8332" y1="102.391" x2="-15.9552" y2="166.099" gradientUnits="userSpaceOnUse">
<stop stop-color="white"/>
<stop offset="1" stop-color="#EFC8C0"/>
</linearGradient>
<linearGradient id="paint2_linear_1_4" x1="81.5465" y1="102.391" x2="-11.3586" y2="177.079" gradientUnits="userSpaceOnUse">
<stop stop-color="white"/>
<stop offset="1" stop-color="#EFC8C0"/>
</linearGradient>
<linearGradient id="paint3_linear_1_4" x1="261.06" y1="-12.6157" x2="82.4716" y2="27.803" gradientUnits="userSpaceOnUse">
<stop stop-color="white"/>
<stop offset="1" stop-color="#EFC8C0"/>
</linearGradient>
<linearGradient id="paint4_linear_1_4" x1="135.744" y1="100.877" x2="107.987" y2="87.0892" gradientUnits="userSpaceOnUse">
<stop stop-color="#FDB502"/>
<stop offset="1" stop-color="#F38926"/>
</linearGradient>
<linearGradient id="paint5_linear_1_4" x1="412.716" y1="262.712" x2="410.929" y2="131.951" gradientUnits="userSpaceOnUse">
<stop stop-color="white"/>
<stop offset="1" stop-color="#EFC8C0"/>
</linearGradient>
<linearGradient id="paint6_linear_1_4" x1="0.694916" y1="240.81" x2="103.927" y2="240.81" gradientUnits="userSpaceOnUse">
<stop stop-color="#DC1D38"/>
<stop offset="1" stop-color="#FFBB00"/>
</linearGradient>
<linearGradient id="paint7_linear_1_4" x1="77.4894" y1="260.389" x2="165.424" y2="157.048" gradientUnits="userSpaceOnUse">
<stop stop-color="#DC1D38"/>
<stop offset="1" stop-color="#FFBB00"/>
</linearGradient>
<linearGradient id="paint8_linear_1_4" x1="97.0798" y1="-49.1938" x2="97.0798" y2="169.856" gradientUnits="userSpaceOnUse">
<stop stop-color="#DC1D38"/>
<stop offset="1" stop-color="#FFBB00"/>
</linearGradient>
<linearGradient id="paint9_linear_1_4" x1="164.516" y1="-52.855" x2="72.3348" y2="33.8629" gradientUnits="userSpaceOnUse">
<stop stop-color="#DC1D38"/>
<stop offset="1" stop-color="#FFBB00"/>
</linearGradient>
<linearGradient id="paint10_linear_1_4" x1="143.688" y1="58.3768" x2="213.742" y2="118.552" gradientUnits="userSpaceOnUse">
<stop stop-color="white"/>
<stop offset="1" stop-color="#EFC8C0"/>
</linearGradient>
</defs>
</svg>
